<svg width="22" height="24" viewBox="0 0 22 24" fill="none" xmlns="http://www.w3.org/2000/svg">
<g clip-path="url(#clip0_2176_48)">
<rect width="22" height="24" fill="#08431D"/>
<path d="M22.0001 11.2459C21.8671 8.90626 21.1096 6.6602 19.8207 4.78457C18.5319 2.90895 16.7681 1.48574 14.7468 0.690389C12.7255 -0.104964 10.535 -0.237696 8.44538 0.308554C6.35577 0.854804 4.45835 2.05616 2.98701 3.76453C1.51567 5.4729 0.534726 7.61361 0.1651 9.92278C-0.204526 12.232 0.0533209 14.6087 0.906856 16.7599C1.76039 18.9111 3.17231 20.7429 4.96856 22.0294C6.76481 23.3159 8.86688 24.0009 11.0156 23.9999H16.9584C18.295 23.998 19.5764 23.418 20.5215 22.3869C21.4666 21.3559 21.9984 19.958 22.0001 18.4999V11.3399V11.2459ZM19.2501 18.4999C19.2501 19.1629 19.0086 19.7988 18.5789 20.2677C18.1491 20.7365 17.5662 20.9999 16.9584 20.9999H11.0156C9.85099 20.9991 8.69956 20.7306 7.63643 20.2118C6.5733 19.693 5.62234 18.9355 4.84556 17.9889C4.06535 17.0429 3.47955 15.9259 3.12747 14.7128C2.77538 13.4996 2.66515 12.2183 2.80415 10.9549C3.02347 8.96306 3.84403 7.10746 5.13655 5.68042C6.42907 4.25338 8.12007 3.33602 9.94315 3.07288C10.2998 3.02432 10.6589 2.99994 11.0184 2.99988C12.9399 2.99388 14.8021 3.72521 16.2791 5.06588C17.1402 5.8462 17.8474 6.80879 18.3581 7.89554C18.8687 8.98229 19.1721 10.1707 19.2501 11.3889V18.4999Z" fill="#FFFEFE"/>
<path d="M8.7085 11.0001H11.4585C11.8232 11.0001 12.1729 10.8421 12.4308 10.5608C12.6886 10.2795 12.8335 9.89797 12.8335 9.50014C12.8335 9.10232 12.6886 8.72079 12.4308 8.43948C12.1729 8.15818 11.8232 8.00014 11.4585 8.00014H8.7085C8.34382 8.00014 7.99409 8.15818 7.73622 8.43948C7.47836 8.72079 7.3335 9.10232 7.3335 9.50014C7.3335 9.89797 7.47836 10.2795 7.73622 10.5608C7.99409 10.8421 8.34382 11.0001 8.7085 11.0001Z" fill="#08431D"/>
<path d="M15.1252 12.9999H8.7085C8.34382 12.9999 7.99409 13.1579 7.73622 13.4392C7.47836 13.7205 7.3335 14.102 7.3335 14.4999C7.3335 14.8977 7.47836 15.2792 7.73622 15.5605C7.99409 15.8418 8.34382 15.9999 8.7085 15.9999H15.1252C15.4898 15.9999 15.8396 15.8418 16.0974 15.5605C16.3553 15.2792 16.5002 14.8977 16.5002 14.4999C16.5002 14.102 16.3553 13.7205 16.0974 13.4392C15.8396 13.1579 15.4898 12.9999 15.1252 12.9999Z" fill="#08431D"/>
</g>
<defs>
<clipPath id="clip0_2176_48">
<rect width="22" height="24" fill="white"/>
</clipPath>
</defs>
</svg>
