<svg width="22" height="24" viewBox="0 0 22 24" fill="none" xmlns="http://www.w3.org/2000/svg">
<path d="M21.9991 11.2459C21.8662 8.90626 21.1086 6.6602 19.8197 4.78457C18.5309 2.90895 16.7671 1.48574 14.7458 0.690389C12.7245 -0.104964 10.534 -0.237696 8.4444 0.308554C6.35479 0.854804 4.45737 2.05616 2.98603 3.76453C1.51469 5.4729 0.533749 7.61361 0.164123 9.92278C-0.205503 12.232 0.0523443 14.6087 0.90588 16.7599C1.75942 18.9111 3.17133 20.7429 4.96758 22.0294C6.76383 23.3159 8.8659 24.0009 11.0147 23.9999H16.9574C18.294 23.998 19.5754 23.418 20.5205 22.3869C21.4657 21.3559 21.9974 19.958 21.9991 18.4999V11.3399V11.2459ZM19.2491 18.4999C19.2491 19.1629 19.0076 19.7988 18.5779 20.2677C18.1481 20.7365 17.5652 20.9999 16.9574 20.9999H11.0147C9.85002 20.9991 8.69859 20.7306 7.63545 20.2118C6.57232 19.693 5.62137 18.9355 4.84459 17.9889C4.06437 17.0429 3.47858 15.9259 3.12649 14.7128C2.77441 13.4996 2.66417 12.2183 2.80317 10.9549C3.02249 8.96306 3.84305 7.10746 5.13557 5.68042C6.42809 4.25338 8.1191 3.33602 9.94217 3.07288C10.2989 3.02432 10.658 2.99994 11.0174 2.99988C12.9389 2.99388 14.8011 3.72521 16.2782 5.06588C17.1393 5.8462 17.8465 6.80879 18.3571 7.89554C18.8677 8.98229 19.1711 10.1707 19.2491 11.3889V18.4999Z" fill="#FFFEFE"/>
</svg>
