<svg width="22" height="24" viewBox="0 0 22 24" fill="none" xmlns="http://www.w3.org/2000/svg">
<g clip-path="url(#clip0_2176_46)">
<path d="M21.0599 8.69518L14.5644 1.60919C12.5941 -0.534728 9.40494 -0.534728 7.43461 1.60919L0.93912 8.69518C0.335496 9.35016 -0.00283926 10.2413 -0.000475983 11.1702V21.5481C0.00154354 22.9028 1.00821 24 2.24996 24.0011H19.7491C20.9908 24.0001 21.9975 22.9028 21.9995 21.5481V11.1702C22.0019 10.2413 21.6636 9.35016 21.0599 8.69518ZM19.2495 21.0012H14.6662V17.8191C14.6662 15.7105 13.0993 14.0011 11.1663 14.0011H10.8327C8.8998 14.0011 7.33286 15.7105 7.33286 17.8191V21.0012H2.74952V11.1702C2.74982 11.0376 2.79786 10.9104 2.88337 10.8162L9.37885 3.73019C10.2737 2.75373 11.7247 2.75355 12.6198 3.72972C12.6199 3.72986 12.6201 3.73004 12.6202 3.73019L19.1157 10.8162C19.2011 10.9104 19.2492 11.0376 19.2495 11.1702V21.0012H19.2495Z" fill="#FFFEFE"/>
</g>
<defs>
<clipPath id="clip0_2176_46">
<rect width="22" height="24" fill="white"/>
</clipPath>
</defs>
</svg>
