<svg width="29" height="28" viewBox="0 0 29 28" fill="none" xmlns="http://www.w3.org/2000/svg">
<path d="M28.1866 25.0194L22.6293 19.5978C26.7876 14.1789 25.6537 6.49873 20.0969 2.44372C14.54 -1.61129 6.66422 -0.505619 2.50595 4.91328C-1.65232 10.3322 -0.518495 18.0124 5.0384 22.0674C9.50216 25.3247 15.633 25.3247 20.0969 22.0674L25.6565 27.489C26.3552 28.1703 27.488 28.1703 28.1866 27.489C28.8853 26.8077 28.8853 25.703 28.1866 25.0218L28.1866 25.0194ZM12.614 21.0209C7.67525 21.0209 3.67169 17.1168 3.67169 12.3007C3.67169 7.48466 7.67525 3.58051 12.614 3.58051C17.5527 3.58051 21.5562 7.48466 21.5562 12.3007C21.551 17.1146 17.5505 21.0158 12.614 21.0209Z" fill="#3C2F2F"/>
</svg>
