<svg width="22" height="24" viewBox="0 0 22 24" fill="none" xmlns="http://www.w3.org/2000/svg">
<g clip-path="url(#clip0_2176_47)">
<path d="M10.4982 14.0188C6.59158 14.404 3.61531 18.0051 3.66717 22.2838V22.5008C3.66717 23.3292 4.28278 24.0008 5.04217 24.0008C5.80156 24.0008 6.41717 23.3292 6.41717 22.5008V22.2238C6.37584 19.5967 8.15302 17.3564 10.5422 17.0238C13.0641 16.751 15.3114 18.7601 15.5614 21.5114C15.5762 21.674 15.5837 21.8373 15.5838 22.0008V22.5008C15.5838 23.3292 16.1994 24.0008 16.9588 24.0008C17.7182 24.0008 18.3338 23.3292 18.3338 22.5008V22.0008C18.3294 17.5775 15.0388 13.9957 10.9841 14.0006C10.822 14.0008 10.6599 14.0069 10.4982 14.0188Z" fill="#FFF7F7"/>
<path d="M11.0005 12C14.038 12 16.5005 9.31369 16.5005 6C16.5005 2.68631 14.038 0 11.0005 0C7.96294 0 5.50049 2.68631 5.50049 6C5.5035 9.31233 7.96419 11.9967 11.0005 12ZM11.0005 3C12.5193 3 13.7505 4.34316 13.7505 6C13.7505 7.65684 12.5193 9 11.0005 9C9.48171 9 8.25049 7.65684 8.25049 6C8.25049 4.34316 9.48171 3 11.0005 3Z" fill="#FFF7F7"/>
</g>
<defs>
<clipPath id="clip0_2176_47">
<rect width="22" height="24" fill="white"/>
</clipPath>
</defs>
</svg>
